<svg width="169" height="38" viewBox="0 0 169 38" fill="none" xmlns="http://www.w3.org/2000/svg">
<path d="M5.5445 31.208C5.5285 30.888 5.5045 30.576 5.4725 30.272C5.4565 29.952 5.4325 29.64 5.4005 29.336C5.3845 29.144 5.3685 28.952 5.3525 28.76C5.3365 28.568 5.3205 28.376 5.3045 28.184C5.2885 27.992 5.2725 27.8 5.2565 27.608C5.2565 27.432 5.2485 27.256 5.2325 27.08C5.2325 26.904 5.2245 26.736 5.2085 26.576C5.1925 26.4 5.1765 26.232 5.1605 26.072C5.1125 25.544 5.0725 25.016 5.0405 24.488C5.0085 23.96 4.9685 23.432 4.9205 22.904C4.9205 22.664 4.9125 22.424 4.8965 22.184C4.8805 21.944 4.8565 21.704 4.8245 21.464C4.8085 21.288 4.7925 21.12 4.7765 20.96C4.7765 20.784 4.7685 20.616 4.7525 20.456C4.7525 20.28 4.7445 20.104 4.7285 19.928C4.5845 17.624 4.4405 15.312 4.2965 12.992C4.1685 10.672 4.0405 8.36 3.9125 6.056C3.8645 5.064 4.0245 4.2 4.3925 3.464C4.7605 2.712 5.4325 2.136 6.4085 1.736C7.4005 1.32 8.7925 1.112 10.5845 1.112C14.3445 1.112 17.5045 1.744 20.0645 3.008C22.6405 4.256 24.5845 6.192 25.8965 8.816C27.2085 11.424 27.8645 14.776 27.8645 18.872C27.8645 22.216 27.2405 25.136 25.9925 27.632C24.7605 30.112 22.9605 32.04 20.5925 33.416C18.2245 34.792 15.3365 35.48 11.9285 35.48C10.4565 35.48 9.2645 35.376 8.3525 35.168C7.4565 34.976 6.7845 34.576 6.3365 33.968C5.9045 33.36 5.6405 32.44 5.5445 31.208ZM9.0965 25.4C9.1445 26.312 9.3765 26.936 9.7925 27.272C10.2085 27.592 10.8085 27.752 11.5925 27.752C12.9685 27.752 14.2325 27.328 15.3845 26.48C16.5525 25.616 17.5605 24.496 18.4085 23.12C19.2725 21.728 19.9445 20.224 20.4245 18.608C20.9045 16.976 21.1445 15.4 21.1445 13.88C21.1445 12.456 20.9205 11.184 20.4725 10.064C20.0245 8.928 19.3925 7.96 18.5765 7.16C17.7605 6.344 16.8005 5.728 15.6965 5.312C14.6085 4.88 13.4165 4.664 12.1205 4.664C10.7125 4.664 9.7525 4.984 9.2405 5.624C8.7445 6.248 8.5045 7.224 8.5205 8.552C8.5685 11.352 8.6405 14.16 8.7365 16.976C8.8325 19.776 8.9525 22.584 9.0965 25.4ZM21.6245 28.664C22.2965 28.664 22.8085 28.48 23.1605 28.112C23.5125 27.728 23.6885 27.288 23.6885 26.792C23.6885 26.088 23.4805 25.52 23.0645 25.088C22.6645 24.656 22.1365 24.44 21.4805 24.44C20.8885 24.44 20.4005 24.648 20.0165 25.064C19.6485 25.464 19.4645 25.992 19.4645 26.648C19.4645 27.272 19.6645 27.768 20.0645 28.136C20.4645 28.488 20.9845 28.664 21.6245 28.664ZM16.6325 32.36C17.2405 32.36 17.6965 32.192 18.0005 31.856C18.3045 31.52 18.4565 31.128 18.4565 30.68C18.4565 30.12 18.3045 29.688 18.0005 29.384C17.7125 29.064 17.3845 28.904 17.0165 28.904C16.2965 28.904 15.7765 29.056 15.4565 29.36C15.1525 29.664 15.0005 30.024 15.0005 30.44C15.0005 31.032 15.1525 31.504 15.4565 31.856C15.7605 32.192 16.1525 32.36 16.6325 32.36ZM24.2645 22.616C24.7765 22.616 25.1605 22.464 25.4165 22.16C25.6725 21.856 25.8005 21.416 25.8005 20.84C25.8005 20.328 25.6645 19.92 25.3925 19.616C25.1205 19.312 24.6325 19.16 23.9285 19.16C23.4965 19.16 23.1205 19.296 22.8005 19.568C22.4965 19.84 22.3445 20.232 22.3445 20.744C22.3445 21.416 22.4885 21.896 22.7765 22.184C23.0805 22.472 23.5765 22.616 24.2645 22.616ZM3.2885 7.88C4.4405 7.896 5.6805 7.944 7.0085 8.024C8.3365 8.104 9.3845 8.184 10.1525 8.264C11.4325 8.36 12.2885 8.528 12.7205 8.768C13.1525 9.008 13.3685 9.384 13.3685 9.896C13.3685 10.44 13.1365 10.824 12.6725 11.048C12.2085 11.256 11.4485 11.384 10.3925 11.432C9.7365 11.448 8.9765 11.456 8.1125 11.456C7.2485 11.456 6.3925 11.448 5.5445 11.432C4.6965 11.416 3.9605 11.4 3.3365 11.384C2.2325 11.336 1.4165 11.176 0.8885 10.904C0.3765 10.632 0.1205 10.2 0.1205 9.608C0.1205 8.952 0.4085 8.496 0.9845 8.24C1.5605 7.968 2.3285 7.848 3.2885 7.88ZM2.8565 14.744C3.9445 14.6 5.1765 14.448 6.5525 14.288C7.9445 14.112 9.1285 13.992 10.1045 13.928C11.2885 13.832 12.1445 13.912 12.6725 14.168C13.2005 14.408 13.4645 14.84 13.4645 15.464C13.4645 16.056 13.2165 16.504 12.7205 16.808C12.2405 17.096 11.4325 17.288 10.2965 17.384C9.4325 17.48 8.3045 17.576 6.9125 17.672C5.5365 17.752 4.2805 17.816 3.1445 17.864C2.1365 17.912 1.4165 17.816 0.9845 17.576C0.5685 17.32 0.3605 16.952 0.3605 16.472C0.3605 15.992 0.5605 15.616 0.9605 15.344C1.3605 15.056 1.9925 14.856 2.8565 14.744ZM11.4485 31.88C11.5925 31.976 11.7285 32.096 11.8565 32.24C12.0005 32.384 12.1045 32.504 12.1685 32.6C12.2805 32.744 12.3605 32.88 12.4085 33.008C12.4565 33.136 12.4805 33.264 12.4805 33.392C12.4805 33.744 12.3365 34.048 12.0485 34.304C11.7765 34.544 11.4565 34.68 11.0885 34.712C10.7205 34.744 10.3925 34.632 10.1045 34.376C10.0085 34.296 9.9125 34.2 9.8165 34.088C9.7365 33.976 9.6565 33.864 9.5765 33.752C9.4805 33.624 9.4085 33.488 9.3605 33.344C9.3285 33.2 9.3125 33.072 9.3125 32.96C9.3125 32.432 9.5525 32.04 10.0325 31.784C10.5125 31.512 10.9845 31.544 11.4485 31.88ZM32.0941 7.064C31.9021 6.024 31.9181 5.2 32.1421 4.592C32.3661 3.968 32.8941 3.656 33.7261 3.656C34.2541 3.656 34.6781 3.872 34.9981 4.304C35.3181 4.72 35.5981 5.336 35.8381 6.152C36.4301 8.136 36.9901 10.16 37.5181 12.224C38.0461 14.272 38.5661 16.32 39.0781 18.368C39.5901 20.4 40.1261 22.392 40.6861 24.344C40.9261 25.176 41.2941 25.592 41.7901 25.592C42.0301 25.592 42.2461 25.472 42.4381 25.232C42.6461 24.992 42.7981 24.632 42.8941 24.152C43.4701 21.24 43.9661 18.304 44.3821 15.344C44.7981 12.384 45.2941 9.432 45.8701 6.488C46.1421 5.096 46.6381 4.016 47.3581 3.248C48.0781 2.464 49.0221 2.072 50.1901 2.072C51.5821 2.072 52.5581 2.432 53.1181 3.152C53.6781 3.856 54.0781 4.872 54.3181 6.2C54.3501 6.312 54.3741 6.432 54.3901 6.56C54.4061 6.672 54.4141 6.728 54.4141 6.728C52.4781 7.016 51.1501 7.344 50.4301 7.712C49.7261 8.08 49.4221 8.568 49.5181 9.176C49.6461 9.8 50.1501 10.104 51.0301 10.088C51.9101 10.056 53.2141 9.768 54.9421 9.224C55.0701 9.704 55.1821 10.184 55.2781 10.664C55.3741 11.144 55.4541 11.624 55.5181 12.104C54.1581 12.28 53.1421 12.48 52.4701 12.704C51.7981 12.912 51.3581 13.16 51.1501 13.448C50.9421 13.72 50.8621 14.04 50.9101 14.408C51.0061 15.032 51.4701 15.352 52.3021 15.368C53.1341 15.384 54.3661 15.144 55.9981 14.648C56.5101 17.192 56.9981 19.752 57.4621 22.328C57.9421 24.888 58.4461 27.416 58.9741 29.912C59.1181 30.616 59.4701 30.968 60.0301 30.968C60.3021 30.968 60.5341 30.864 60.7261 30.656C60.9341 30.432 61.0381 30.12 61.0381 29.72C61.0861 27.192 61.1021 24.624 61.0861 22.016C61.0861 19.408 61.0861 16.808 61.0861 14.216C61.0861 11.608 61.1181 9.048 61.1821 6.536C61.2301 4.376 61.6701 2.888 62.5021 2.072C63.3341 1.24 64.5741 0.823999 66.2221 0.823999C68.1901 0.823999 69.5581 1.432 70.3261 2.648C71.1101 3.864 71.2461 5.592 70.7341 7.832C69.8221 11.88 68.8781 15.784 67.9021 19.544C66.9421 23.304 65.9181 27 64.8301 30.632C64.3501 32.264 63.7741 33.496 63.1021 34.328C62.4301 35.16 61.3261 35.576 59.7901 35.576C58.3341 35.576 57.2861 35.152 56.6461 34.304C56.0061 33.44 55.5021 32.312 55.1341 30.92C54.6861 29.256 54.2461 27.4 53.8141 25.352C53.3981 23.288 52.9261 21.272 52.3981 19.304C52.2061 18.536 51.8701 18.152 51.3901 18.152C51.1821 18.152 50.9741 18.232 50.7661 18.392C50.5581 18.536 50.3821 18.744 50.2381 19.016C49.9821 19.464 49.7181 19.92 49.4461 20.384C49.1901 20.848 48.9421 21.32 48.7021 21.8C48.6221 21.96 48.5421 22.12 48.4621 22.28C48.3821 22.424 48.3021 22.576 48.2221 22.736C48.1581 22.88 48.0941 23.032 48.0301 23.192C47.9341 23.384 47.8381 23.576 47.7421 23.768C47.6461 23.96 47.5501 24.152 47.4541 24.344C47.3581 24.536 47.2621 24.728 47.1661 24.92C47.0541 25.176 46.9341 25.432 46.8061 25.688C46.6941 25.928 46.5741 26.168 46.4461 26.408C46.3821 26.552 46.3181 26.696 46.2541 26.84C46.1901 26.968 46.1181 27.104 46.0381 27.248C45.9741 27.376 45.9021 27.512 45.8221 27.656C45.7421 27.816 45.6541 27.984 45.5581 28.16C45.4781 28.32 45.3901 28.488 45.2941 28.664C45.2141 28.824 45.1341 28.984 45.0541 29.144C44.9421 29.352 44.8221 29.576 44.6941 29.816C44.5821 30.04 44.4621 30.264 44.3341 30.488C43.8381 31.368 43.2781 32 42.6541 32.384C42.0461 32.752 41.3581 32.936 40.5901 32.936C39.5821 32.936 38.8301 32.6 38.3341 31.928C37.8381 31.256 37.4541 30.392 37.1821 29.336C36.2221 25.656 35.3101 21.968 34.4461 18.272C33.5981 14.56 32.8141 10.824 32.0941 7.064ZM38.0941 13.064C39.0861 12.968 39.9341 12.96 40.6381 13.04C41.3581 13.12 41.7181 13.56 41.7181 14.36C41.7181 14.904 41.4221 15.336 40.8301 15.656C40.2381 15.96 39.4861 16.2 38.5741 16.376C37.8061 16.52 37.0461 16.664 36.2941 16.808C35.5421 16.936 34.7821 17.048 34.0141 17.144C32.7821 17.304 31.8141 17.328 31.1101 17.216C30.4061 17.088 30.0541 16.56 30.0541 15.632C30.0541 15.008 30.3341 14.568 30.8941 14.312C31.4541 14.04 32.3341 13.816 33.5341 13.64C34.3021 13.512 35.0621 13.4 35.8141 13.304C36.5661 13.208 37.3261 13.128 38.0941 13.064ZM36.9901 19.544L37.4221 22.616C36.1421 22.776 34.9901 22.904 33.9661 23C32.9581 23.08 32.1581 23.016 31.5661 22.808C30.9901 22.584 30.7021 22.096 30.7021 21.344C30.7021 20.672 31.1901 20.224 32.1661 20C33.1421 19.76 34.7501 19.608 36.9901 19.544ZM66.2221 8.6C66.8781 8.6 67.3981 8.408 67.7821 8.024C68.1821 7.64 68.3821 7.016 68.3821 6.152C68.3821 5.48 68.1901 4.968 67.8061 4.616C67.4221 4.264 66.8301 4.088 66.0301 4.088C65.3901 4.088 64.8701 4.272 64.4701 4.64C64.0701 5.008 63.8701 5.592 63.8701 6.392C63.8701 7.128 64.0621 7.68 64.4461 8.048C64.8461 8.416 65.4381 8.6 66.2221 8.6ZM47.1181 16.712C46.7661 16.712 46.4781 16.592 46.2541 16.352C46.0301 16.096 45.9181 15.72 45.9181 15.224C45.9181 14.904 46.0301 14.64 46.2541 14.432C46.4781 14.224 46.8141 14.12 47.2621 14.12C47.6461 14.12 47.9501 14.232 48.1741 14.456C48.3981 14.68 48.5101 15 48.5101 15.416C48.5101 15.848 48.3901 16.176 48.1501 16.4C47.9261 16.608 47.5821 16.712 47.1181 16.712ZM69.0061 2.552C69.1821 2.6 69.2861 2.712 69.3181 2.888C69.3501 3.064 69.3261 3.24 69.2461 3.416C69.1981 3.576 69.1101 3.72 68.9821 3.848C68.8541 3.96 68.7021 3.992 68.5261 3.944C68.4301 3.912 68.3341 3.88 68.2381 3.848C68.1421 3.8 68.0461 3.768 67.9501 3.752C67.7581 3.672 67.6461 3.544 67.6141 3.368C67.5821 3.176 67.5981 2.984 67.6621 2.792C67.7101 2.648 67.7981 2.528 67.9261 2.432C68.0701 2.336 68.2221 2.312 68.3821 2.36C68.4781 2.376 68.5821 2.408 68.6941 2.456C68.8061 2.488 68.9101 2.52 69.0061 2.552ZM63.6781 3.272C63.9501 3.368 64.1021 3.512 64.1341 3.704C64.1821 3.896 64.1581 4.104 64.0621 4.328C63.9981 4.488 63.8781 4.616 63.7021 4.712C63.5421 4.808 63.3421 4.808 63.1021 4.712C63.0381 4.68 62.9741 4.656 62.9101 4.64C62.8621 4.608 62.7981 4.584 62.7181 4.568C62.5581 4.52 62.4461 4.408 62.3821 4.232C62.3341 4.04 62.3341 3.848 62.3821 3.656C62.4301 3.464 62.5181 3.304 62.6461 3.176C62.7901 3.032 62.9581 3 63.1501 3.08C63.2301 3.096 63.3181 3.128 63.4141 3.176C63.5261 3.208 63.6141 3.24 63.6781 3.272ZM74.8175 31.88C74.9455 28.44 75.0815 25.016 75.2255 21.608C75.3855 18.2 75.5695 14.856 75.7775 11.576C75.7935 11.336 75.8015 11.096 75.8015 10.856C75.8175 10.616 75.8335 10.376 75.8495 10.136C75.8655 9.992 75.8735 9.848 75.8735 9.704C75.8895 9.544 75.8975 9.384 75.8975 9.224C75.9135 9.064 75.9215 8.904 75.9215 8.744C75.9375 8.424 75.9535 8.104 75.9695 7.784C76.0015 7.448 76.0255 7.128 76.0415 6.824C76.0735 6.536 76.0975 6.256 76.1135 5.984C76.1295 5.712 76.1455 5.432 76.1615 5.144C76.1775 4.952 76.1855 4.784 76.1855 4.64C76.2015 4.48 76.2175 4.328 76.2335 4.184C76.2495 4.024 76.2655 3.864 76.2815 3.704C76.2975 3.528 76.3135 3.368 76.3295 3.224C76.3455 3.064 76.3615 2.904 76.3775 2.744C76.4895 1.976 76.6975 1.368 77.0015 0.919998C77.3215 0.471998 77.8415 0.247998 78.5615 0.247998C79.3615 0.247998 79.9215 0.535998 80.2415 1.112C80.5775 1.672 80.7215 2.376 80.6735 3.224C80.5615 5.304 80.4015 7.312 80.1935 9.248C80.0015 11.168 79.8575 13.128 79.7615 15.128C79.7455 15.512 79.8415 15.84 80.0495 16.112C80.2575 16.368 80.6095 16.472 81.1055 16.424C82.7215 16.28 84.4015 16.08 86.1455 15.824C87.8895 15.568 89.5535 15.288 91.1375 14.984C91.6975 14.856 92.0815 14.688 92.2895 14.48C92.4975 14.272 92.6095 13.976 92.6255 13.592C92.7215 12.488 92.7855 11.368 92.8175 10.232C92.8495 9.08 92.8975 7.896 92.9615 6.68C93.0415 5.768 93.2895 5.024 93.7055 4.448C94.1375 3.856 94.7855 3.56 95.6495 3.56C96.5455 3.56 97.2015 3.888 97.6175 4.544C98.0495 5.184 98.2415 6.056 98.1935 7.16C98.0495 11.736 97.8735 16.384 97.6655 21.104C97.4575 25.824 97.2175 30.296 96.9455 34.52C96.8975 35.432 96.6815 36.16 96.2975 36.704C95.9135 37.264 95.2495 37.544 94.3055 37.544C93.2975 37.544 92.6095 37.208 92.2415 36.536C91.8895 35.864 91.8095 35.016 92.0015 33.992C92.2255 32.856 92.4895 31.736 92.7935 30.632C93.0975 29.512 93.3455 28.392 93.5375 27.272C93.6335 26.76 93.6175 26.392 93.4895 26.168C93.3615 25.944 93.0895 25.8 92.6735 25.736C92.4335 25.688 92.1935 25.648 91.9535 25.616C91.7135 25.584 91.4735 25.56 91.2335 25.544C91.3935 24.504 91.5055 23.528 91.5695 22.616C91.6495 21.704 91.6015 20.96 91.4255 20.384C91.2495 19.808 90.8655 19.512 90.2735 19.496C89.8895 19.48 89.5455 19.6 89.2415 19.856C88.9535 20.112 88.6975 20.648 88.4735 21.464C88.2655 22.264 88.0975 23.48 87.9695 25.112C87.4735 25.032 86.9615 24.968 86.4335 24.92C85.9055 24.856 85.3775 24.792 84.8495 24.728C84.7535 23.304 84.6255 22.2 84.4655 21.416C84.3215 20.616 84.1135 20.056 83.8415 19.736C83.5855 19.416 83.2495 19.256 82.8335 19.256C82.1135 19.256 81.6575 19.656 81.4655 20.456C81.2895 21.256 81.3935 22.584 81.7775 24.44C81.5375 24.408 81.2975 24.392 81.0575 24.392C80.8175 24.376 80.5775 24.36 80.3375 24.344C79.9375 24.312 79.6495 24.392 79.4735 24.584C79.3135 24.776 79.2335 25.08 79.2335 25.496C79.2655 26.552 79.3295 27.608 79.4255 28.664C79.5215 29.72 79.5695 30.792 79.5695 31.88C79.5695 32.52 79.3775 33.104 78.9935 33.632C78.6095 34.16 77.9695 34.424 77.0735 34.424C76.1935 34.424 75.5935 34.168 75.2735 33.656C74.9535 33.144 74.8015 32.552 74.8175 31.88ZM85.9535 12.152C85.1695 12.152 84.5535 11.88 84.1055 11.336C83.6735 10.792 83.4575 10.056 83.4575 9.128C83.4575 8.408 83.7055 7.84 84.2015 7.424C84.7135 6.992 85.4255 6.776 86.3375 6.776C87.1855 6.776 87.8095 7.024 88.2095 7.52C88.6255 8.016 88.8335 8.712 88.8335 9.608C88.8335 10.344 88.6015 10.952 88.1375 11.432C87.6735 11.912 86.9455 12.152 85.9535 12.152ZM95.5535 8.552C95.9375 8.552 96.2255 8.712 96.4175 9.032C96.6095 9.336 96.7055 9.8 96.7055 10.424C96.7055 11 96.5935 11.448 96.3695 11.768C96.1615 12.088 95.8415 12.248 95.4095 12.248C95.2495 12.248 95.0895 12.248 94.9295 12.248C94.7695 12.248 94.5935 12.248 94.4015 12.248C94.0175 12.248 93.7455 12.08 93.5855 11.744C93.4255 11.392 93.3455 10.968 93.3455 10.472C93.3455 9.816 93.4575 9.336 93.6815 9.032C93.9055 8.712 94.2575 8.552 94.7375 8.552C94.8815 8.552 95.0175 8.552 95.1455 8.552C95.2735 8.552 95.4095 8.552 95.5535 8.552ZM77.6015 33.848C76.7375 33.848 76.1295 33.664 75.7775 33.296C75.4255 32.928 75.2495 32.504 75.2495 32.024C75.2495 31.32 75.4175 30.768 75.7535 30.368C76.0895 29.968 76.5775 29.768 77.2175 29.768C77.8735 29.768 78.3855 29.976 78.7535 30.392C79.1375 30.792 79.3295 31.368 79.3295 32.12C79.3295 32.648 79.1695 33.072 78.8495 33.392C78.5295 33.696 78.1135 33.848 77.6015 33.848ZM78.4175 3.512C78.7375 3.512 78.9695 3.656 79.1135 3.944C79.2575 4.216 79.3295 4.52 79.3295 4.856C79.3295 5.208 79.2495 5.536 79.0895 5.84C78.9455 6.144 78.7055 6.312 78.3695 6.344C78.2575 6.344 78.1375 6.352 78.0095 6.368C77.8975 6.384 77.7775 6.392 77.6495 6.392C77.3455 6.408 77.1135 6.28 76.9535 6.008C76.8095 5.72 76.7375 5.4 76.7375 5.048C76.7375 4.68 76.8255 4.336 77.0015 4.016C77.1775 3.68 77.4415 3.512 77.7935 3.512C77.8895 3.512 77.9935 3.512 78.1055 3.512C78.2175 3.512 78.3215 3.512 78.4175 3.512ZM116.501 20.792C114.821 20.792 113.149 20.752 111.485 20.672C109.837 20.576 108.197 20.456 106.565 20.312C105.749 20.232 105.085 20.072 104.573 19.832C104.077 19.576 103.829 19.112 103.829 18.44C103.829 17.592 104.133 17.08 104.741 16.904C105.349 16.728 106.117 16.664 107.045 16.712C108.581 16.776 110.253 16.888 112.061 17.048C113.885 17.208 115.429 17.352 116.693 17.48C117.637 17.576 118.333 17.744 118.781 17.984C119.245 18.208 119.477 18.632 119.477 19.256C119.477 19.896 119.229 20.312 118.733 20.504C118.237 20.696 117.493 20.792 116.501 20.792ZM115.349 12.92C114.149 13.16 112.957 13.376 111.773 13.568C110.589 13.76 109.397 13.928 108.197 14.072C107.413 14.168 106.749 14.12 106.205 13.928C105.677 13.736 105.413 13.272 105.413 12.536C105.413 12.008 105.621 11.608 106.037 11.336C106.453 11.048 106.997 10.824 107.669 10.664C108.805 10.376 109.941 10.12 111.077 9.896C112.229 9.672 113.365 9.464 114.485 9.272C115.685 9.08 116.597 9.072 117.221 9.248C117.861 9.424 118.181 9.944 118.181 10.808C118.181 11.448 117.933 11.92 117.437 12.224C116.957 12.512 116.261 12.744 115.349 12.92ZM107.237 11.336C107.605 11.336 107.877 11.44 108.053 11.648C108.245 11.84 108.341 12.072 108.341 12.344C108.341 12.84 108.229 13.2 108.005 13.424C107.797 13.632 107.525 13.736 107.189 13.736C106.757 13.736 106.437 13.624 106.229 13.4C106.037 13.176 105.941 12.888 105.941 12.536C105.941 12.152 106.045 11.856 106.253 11.648C106.477 11.44 106.805 11.336 107.237 11.336ZM102.149 30.248C102.149 28.808 102.541 27.736 103.325 27.032C104.125 26.312 105.109 25.944 106.277 25.928C106.709 25.928 107.085 25.928 107.405 25.928C107.725 25.912 108.037 25.896 108.341 25.88C108.757 25.848 109.037 25.696 109.181 25.424C109.341 25.136 109.429 24.696 109.445 24.104C109.461 23.864 109.469 23.6 109.469 23.312C109.485 23.024 109.493 22.72 109.493 22.4C109.509 22.192 109.517 21.984 109.517 21.776C109.517 21.552 109.517 21.336 109.517 21.128C109.533 20.92 109.541 20.712 109.541 20.504C109.541 20.296 109.541 20.088 109.541 19.88C109.541 19.672 109.541 19.216 109.541 18.512C109.541 17.808 109.541 16.984 109.541 16.04C109.541 15.928 109.541 15.824 109.541 15.728C109.541 15.616 109.541 15.504 109.541 15.392C109.541 15.28 109.541 15.168 109.541 15.056C109.541 14.896 109.541 14.744 109.541 14.6C109.541 14.44 109.541 14.28 109.541 14.12C109.541 12.744 109.533 11.408 109.517 10.112C109.517 8.8 109.509 7.848 109.493 7.256C109.477 6.744 109.365 6.392 109.157 6.2C108.965 6.008 108.629 5.912 108.149 5.912C107.749 5.912 107.277 5.936 106.733 5.984C106.189 6.032 105.637 6.056 105.077 6.056C104.101 6.056 103.325 5.856 102.749 5.456C102.189 5.04 101.909 4.392 101.909 3.512C101.941 2.616 102.221 1.992 102.749 1.64C103.293 1.272 104.053 1.064 105.029 1.016C107.221 0.919999 109.405 0.871999 111.581 0.871999C113.773 0.855998 115.861 0.887998 117.845 0.967998C118.997 1.016 119.821 1.16 120.317 1.4C120.813 1.64 121.061 2.088 121.061 2.744C121.061 3.368 120.829 3.816 120.365 4.088C119.917 4.36 119.285 4.568 118.469 4.712C117.653 4.872 116.901 4.992 116.213 5.072C115.525 5.136 114.853 5.24 114.197 5.384C113.765 5.48 113.445 5.624 113.237 5.816C113.045 5.992 112.949 6.312 112.949 6.776C113.029 9.624 113.133 12.488 113.261 15.368C113.389 18.232 113.557 21.096 113.765 23.96C113.813 24.68 113.981 25.216 114.269 25.568C114.573 25.904 115.061 26.088 115.733 26.12C116.069 26.136 116.413 26.152 116.765 26.168C117.117 26.168 117.461 26.184 117.797 26.216C119.557 26.312 120.893 26.792 121.805 27.656C122.717 28.52 123.157 29.672 123.125 31.112C123.125 32.328 122.877 33.32 122.381 34.088C121.901 34.84 121.213 35.376 120.317 35.696C119.421 36.016 118.373 36.12 117.173 36.008C117.109 36.008 117.045 36 116.981 35.984C116.933 35.968 116.869 35.96 116.789 35.96C117.141 34.136 117.349 32.752 117.413 31.808C117.493 30.864 117.405 30.224 117.149 29.888C116.909 29.552 116.485 29.384 115.877 29.384C115.509 29.384 115.221 29.544 115.013 29.864C114.805 30.168 114.637 30.776 114.509 31.688C114.381 32.584 114.261 33.912 114.149 35.672C113.717 35.624 113.285 35.568 112.853 35.504C112.421 35.456 111.973 35.4 111.509 35.336C111.509 33.944 111.437 32.904 111.293 32.216C111.149 31.512 110.949 31.048 110.693 30.824C110.437 30.6 110.133 30.488 109.781 30.488C109.429 30.488 109.133 30.6 108.893 30.824C108.653 31.048 108.493 31.48 108.413 32.12C108.349 32.744 108.389 33.672 108.533 34.904C108.149 34.856 107.765 34.8 107.381 34.736C106.997 34.656 106.613 34.584 106.229 34.52C105.013 34.296 104.029 33.856 103.277 33.2C102.525 32.544 102.149 31.56 102.149 30.248ZM135.212 34.616C134.396 34.616 133.628 34.512 132.908 34.304C132.188 34.08 131.612 33.752 131.18 33.32C130.924 33.064 130.708 32.784 130.532 32.48C130.372 32.16 130.244 31.824 130.148 31.472C130.068 31.104 130.004 30.728 129.956 30.344C129.924 29.96 129.916 29.576 129.932 29.192C132.332 29.784 134.1 30.032 135.236 29.936C136.372 29.824 136.94 29.336 136.94 28.472C136.94 27.768 136.46 27.288 135.5 27.032C134.54 26.776 132.764 26.568 130.172 26.408C130.204 26.024 130.236 25.576 130.268 25.064C130.316 24.552 130.364 24.104 130.412 23.72C131.916 23.768 133.108 23.76 133.988 23.696C134.868 23.616 135.492 23.44 135.86 23.168C136.244 22.88 136.428 22.456 136.412 21.896C136.396 21.432 136.188 21.096 135.788 20.888C135.388 20.664 134.772 20.536 133.94 20.504C133.124 20.472 132.076 20.504 130.796 20.6C131.116 18.344 131.412 16.248 131.684 14.312C131.956 12.36 132.236 10.472 132.524 8.648C132.668 7.816 132.548 7.272 132.164 7.016C131.78 6.76 131.244 6.664 130.556 6.728C129.868 6.792 129.116 6.904 128.3 7.064C127.5 7.224 126.732 7.312 125.996 7.328C125.276 7.344 124.676 7.176 124.196 6.824C123.732 6.456 123.5 5.784 123.5 4.808C123.5 4.28 123.628 3.848 123.884 3.512C124.156 3.176 124.548 2.92 125.06 2.744C125.588 2.552 126.22 2.408 126.956 2.312C127.132 2.28 127.324 2.256 127.532 2.24C127.74 2.208 127.956 2.184 128.18 2.168C128.5 2.136 128.78 2.104 129.02 2.072C129.276 2.024 129.508 1.992 129.716 1.976C130.308 1.896 130.868 1.824 131.396 1.76C131.94 1.696 132.532 1.624 133.172 1.544C133.284 1.528 133.396 1.512 133.508 1.496C133.636 1.48 133.764 1.464 133.892 1.448C134.036 1.432 134.172 1.416 134.3 1.4C134.444 1.384 134.58 1.368 134.708 1.352C134.852 1.336 134.98 1.32 135.092 1.304C135.22 1.288 135.324 1.28 135.404 1.28C137.164 1.072 138.708 0.911998 140.036 0.799998C141.38 0.671998 142.492 0.631998 143.372 0.679998C144.268 0.727999 144.94 0.887999 145.388 1.16C145.836 1.432 146.06 1.864 146.06 2.456C146.06 3.048 145.804 3.512 145.292 3.848C144.796 4.168 144.148 4.416 143.348 4.592C142.564 4.768 141.74 4.92 140.876 5.048C140.012 5.176 139.212 5.344 138.476 5.552C137.74 5.744 137.172 6.024 136.772 6.392C136.372 6.76 136.252 7.272 136.412 7.928C137.132 10.872 137.828 13.504 138.5 15.824C139.172 18.144 139.756 20.208 140.252 22.016C140.748 23.808 141.092 25.392 141.284 26.768C141.492 28.128 141.476 29.328 141.236 30.368C141.012 31.392 140.508 32.296 139.724 33.08C139.196 33.608 138.524 34 137.708 34.256C136.908 34.496 136.076 34.616 135.212 34.616ZM134.3 5.048C133.916 5.048 133.612 4.952 133.388 4.76C133.164 4.568 133.052 4.296 133.052 3.944C133.052 3.576 133.156 3.288 133.364 3.08C133.588 2.856 133.868 2.744 134.204 2.744C134.572 2.744 134.852 2.848 135.044 3.056C135.252 3.248 135.356 3.48 135.356 3.752C135.356 4.152 135.252 4.472 135.044 4.712C134.836 4.936 134.588 5.048 134.3 5.048ZM136.7 33.704L136.988 30.056C137.516 30.12 137.948 30.208 138.284 30.32C138.636 30.432 138.892 30.6 139.052 30.824C139.228 31.032 139.316 31.336 139.316 31.736C139.316 32.36 139.22 32.816 139.028 33.104C138.836 33.392 138.548 33.576 138.164 33.656C137.78 33.72 137.292 33.736 136.7 33.704ZM137.036 14.168L136.172 17.336C135.708 17.208 135.332 17.08 135.044 16.952C134.756 16.824 134.548 16.664 134.42 16.472C134.292 16.28 134.228 16.048 134.228 15.776C134.228 15.12 134.34 14.664 134.564 14.408C134.788 14.152 135.108 14.024 135.524 14.024C135.94 14.008 136.444 14.056 137.036 14.168ZM147.696 31.64C147.872 29.512 148.064 27.152 148.272 24.56C148.496 21.968 148.72 19.336 148.944 16.664C148.96 16.504 148.976 16.344 148.992 16.184C149.008 16.024 149.024 15.864 149.04 15.704C149.056 15.544 149.072 15.384 149.088 15.224C149.104 15.032 149.12 14.848 149.136 14.672C149.152 14.48 149.168 14.288 149.184 14.096C149.2 13.904 149.216 13.72 149.232 13.544C149.264 13.24 149.288 12.944 149.304 12.656C149.336 12.352 149.368 12.048 149.4 11.744C149.432 11.472 149.456 11.2 149.472 10.928C149.504 10.656 149.528 10.392 149.544 10.136C149.576 9.848 149.6 9.568 149.616 9.296C149.648 9.008 149.672 8.736 149.688 8.48C149.72 8.288 149.744 8.096 149.76 7.904C149.776 7.712 149.792 7.528 149.808 7.352C149.936 6.072 150.288 5.136 150.864 4.544C151.456 3.952 152.368 3.48 153.6 3.128C154.32 2.92 155.176 2.704 156.168 2.48C157.176 2.256 158.208 2.048 159.264 1.856C160.336 1.648 161.312 1.488 162.192 1.376C163.072 1.248 163.752 1.184 164.232 1.184C165.64 1.184 166.672 1.632 167.328 2.528C167.984 3.408 168.312 4.584 168.312 6.056C168.312 7.304 168.112 8.456 167.712 9.512C167.328 10.568 166.76 11.376 166.008 11.936C165.256 12.48 164.336 12.616 163.248 12.344C163.584 11.112 163.864 10.008 164.088 9.032C164.328 8.056 164.384 7.288 164.256 6.728C164.128 6.152 163.688 5.864 162.936 5.864C162.248 5.864 161.768 6.328 161.496 7.256C161.224 8.184 160.912 9.688 160.56 11.768C160.128 11.64 159.728 11.536 159.36 11.456C158.992 11.36 158.576 11.256 158.112 11.144C158.256 9.08 158.264 7.688 158.136 6.968C158.024 6.232 157.616 5.864 156.912 5.864C156.464 5.864 156.128 6 155.904 6.272C155.68 6.528 155.528 6.976 155.448 7.616C155.384 8.256 155.36 9.128 155.376 10.232C155.232 10.184 155.088 10.152 154.944 10.136C154.8 10.104 154.656 10.088 154.512 10.088C154.112 10.088 153.816 10.2 153.624 10.424C153.448 10.648 153.344 10.968 153.312 11.384C153.216 13.016 153.152 14.664 153.12 16.328C153.088 17.976 153.072 19.592 153.072 21.176C153.072 21.624 153.232 21.952 153.552 22.16C153.888 22.368 154.368 22.376 154.992 22.184C156.432 21.72 157.696 21.328 158.784 21.008C159.872 20.688 160.688 20.456 161.232 20.312C162 20.12 162.608 20.248 163.056 20.696C163.504 21.144 163.728 21.672 163.728 22.28C163.728 22.696 163.6 23.096 163.344 23.48C163.088 23.848 162.672 24.104 162.096 24.248C161.888 24.296 161.672 24.352 161.448 24.416C161.24 24.464 161.024 24.512 160.8 24.56C160.672 24.592 160.544 24.624 160.416 24.656C160.288 24.688 160.16 24.72 160.032 24.752C159.92 24.768 159.816 24.792 159.72 24.824C159.624 24.84 159.528 24.864 159.432 24.896C159.272 24.928 159.12 24.968 158.976 25.016C158.832 25.048 158.68 25.08 158.52 25.112C158.456 25.128 158.384 25.144 158.304 25.16C158.24 25.176 158.168 25.192 158.088 25.208C158.024 25.224 157.952 25.24 157.872 25.256C157.792 25.272 157.712 25.288 157.632 25.304C157.568 25.32 157.496 25.344 157.416 25.376C157.336 25.392 157.256 25.408 157.176 25.424C156.952 25.472 156.728 25.528 156.504 25.592C156.296 25.64 156.096 25.688 155.904 25.736C155.376 25.864 155.04 26.048 154.896 26.288C154.768 26.528 154.736 26.84 154.8 27.224C154.88 27.672 155 28.256 155.16 28.976C155.32 29.68 155.504 30.296 155.712 30.824C155.888 31.256 156.104 31.52 156.36 31.616C156.616 31.712 156.944 31.688 157.344 31.544C158.4 31.128 159.576 30.672 160.872 30.176C162.184 29.68 163.248 29.336 164.064 29.144C165.04 28.92 165.776 29.104 166.272 29.696C166.768 30.272 167.016 30.92 167.016 31.64C167.016 32.184 166.88 32.68 166.608 33.128C166.336 33.576 165.92 33.848 165.36 33.944C163.392 34.28 161.208 34.608 158.808 34.928C156.408 35.232 154.064 35.448 151.776 35.576C150.416 35.64 149.368 35.36 148.632 34.736C147.896 34.112 147.584 33.08 147.696 31.64ZM156.336 32.12L159.456 32.024C159.552 32.52 159.576 32.96 159.528 33.344C159.496 33.712 159.376 34.016 159.168 34.256C158.96 34.48 158.656 34.616 158.256 34.664C157.808 34.728 157.448 34.656 157.176 34.448C156.904 34.24 156.704 33.936 156.576 33.536C156.448 33.12 156.368 32.648 156.336 32.12ZM161.808 32.408C161.792 32.264 161.768 32.12 161.736 31.976C161.72 31.832 161.712 31.688 161.712 31.544C161.712 31.224 161.808 30.944 162 30.704C162.208 30.464 162.576 30.296 163.104 30.2C163.584 30.104 163.976 30.104 164.28 30.2C164.584 30.28 164.768 30.504 164.832 30.872C164.864 30.984 164.888 31.112 164.904 31.256C164.936 31.384 164.96 31.512 164.976 31.64C165.056 32.04 164.992 32.392 164.784 32.696C164.576 32.984 164.208 33.192 163.68 33.32C163.088 33.432 162.648 33.432 162.36 33.32C162.072 33.192 161.888 32.888 161.808 32.408ZM157.68 18.296C156.848 18.296 156.232 18.12 155.832 17.768C155.432 17.416 155.232 16.76 155.232 15.8C155.232 15.336 155.432 14.904 155.832 14.504C156.232 14.088 156.72 13.88 157.296 13.88C158.112 13.88 158.704 14.064 159.072 14.432C159.456 14.8 159.648 15.368 159.648 16.136C159.648 16.872 159.464 17.416 159.096 17.768C158.728 18.12 158.256 18.296 157.68 18.296ZM158.544 3.656C158.544 3.464 158.632 3.288 158.808 3.128C159 2.952 159.264 2.856 159.6 2.84C159.872 2.808 160.128 2.84 160.368 2.936C160.624 3.032 160.752 3.192 160.752 3.416C160.752 3.48 160.752 3.576 160.752 3.704C160.752 3.832 160.752 3.944 160.752 4.04C160.752 4.296 160.648 4.504 160.44 4.664C160.232 4.824 159.984 4.92 159.696 4.952C159.44 4.968 159.192 4.928 158.952 4.832C158.712 4.72 158.576 4.52 158.544 4.232C158.544 4.136 158.544 4.04 158.544 3.944C158.544 3.848 158.544 3.752 158.544 3.656ZM152.64 6.776L152.4 8.696C152 8.648 151.704 8.536 151.512 8.36C151.32 8.184 151.232 7.928 151.248 7.592C151.28 7.208 151.432 6.976 151.704 6.896C151.976 6.816 152.288 6.776 152.64 6.776Z" fill="black"/>
</svg>
